<?xml version="1.0" standalone="no"?>
<!DOCTYPE svg PUBLIC "-//W3C//DTD SVG 1.1//EN" "http://www.w3.org/Graphics/SVG/1.1/DTD/svg11.dtd" >
<svg xmlns="http://www.w3.org/2000/svg" xmlns:xlink="http://www.w3.org/1999/xlink" version="1.1">
<metadata>
Created by FontForge 20170731 at Sun Dec  7 21:51:35 2008
 By Aleksey,,,
(c) 1998 Ray Larabie. See attached license agreement for more information. If EULA is missing, visit www.larabiefonts.com for an updated version of this font.
</metadata>
<defs>
<font id="Capacitor-Regular" horiz-adv-x="994" >
  <font-face 
    font-family="Capacitor"
    font-weight="400"
    font-variant="small-caps"
    font-stretch="normal"
    units-per-em="1000"
    panose-1="2 0 4 0 0 0 0 0 0 0"
    ascent="700"
    descent="-300"
    x-height="307"
    cap-height="673"
    bbox="-58 -238 1550 944"
    underline-thickness="20"
    underline-position="-163"
    unicode-range="U+0020-2122"
  />
<missing-glyph horiz-adv-x="452" 
d="M129 0q-97 0 -97 84v488q0 85 97 85h193q98 0 98 -85v-488q0 -84 -98 -84h-193zM368 572q0 39 -46 39h-193q-46 0 -46 -39v-488q0 -39 46 -39h193q46 0 46 39v488z" />
    <glyph glyph-name=".notdef" horiz-adv-x="452" 
d="M129 0q-97 0 -97 84v488q0 85 97 85h193q98 0 98 -85v-488q0 -84 -98 -84h-193zM368 572q0 39 -46 39h-193q-46 0 -46 -39v-488q0 -39 46 -39h193q46 0 46 39v488z" />
    <glyph glyph-name=".null" horiz-adv-x="0" 
 />
    <glyph glyph-name="nonmarkingreturn" horiz-adv-x="291" 
 />
    <glyph glyph-name="space" unicode=" " horiz-adv-x="262" 
 />
    <glyph glyph-name="exclam" unicode="!" horiz-adv-x="165" 
d="M96 624h-48q0 19 15 34t33 15v-49zM96 377h-48v238h48v-238zM96 11q-18 0 -33 15t-15 35h48v-50z" />
    <glyph glyph-name="quotedbl" unicode="&#x22;" horiz-adv-x="252" 
d="M147 624v49q18 0 33.5 -15t15.5 -34h-49zM96 624h-48q0 19 15 34t33 15v-49zM196 377h-49v238h49v-238zM96 377h-48v238h48v-238z" />
    <glyph glyph-name="numbersign" unicode="#" 
d="M319 71h-47v185h-169v51h768v-51h-599l47 -8v-177zM871 380h-768v49h768v-49zM714 440h-49v177h49v-177zM714 71h-49v177h49v-177zM319 440h-47v177h47v-177z" />
    <glyph glyph-name="dollar" unicode="$" 
d="M871 11l9 50h48q0 -20 -15.5 -35t-41.5 -15h-768l-7 50h775v-50zM871 319h-768v50h768v-50zM871 624h-768v49h768v-49zM714 377h-49v240h49v-240zM714 71h-49v237h49v-237zM928 69h-48v239h48v-239zM96 377h-48v238h48v-238zM319 377h-47v240h47v-240zM319 71h-47v237h47
v-237zM880 319v50q19 0 33.5 -15t14.5 -35h-48zM96 11q-18 0 -33 15t-15 35h48v-50zM96 319q-18 0 -33 15t-15 35h48v-50zM880 624v49q19 0 33.5 -15t14.5 -34h-48zM96 624h-48q0 19 15 34t33 15v-49z" />
    <glyph glyph-name="percent" unicode="%" 
d="M926 371q0 -20 -14.5 -35t-32.5 -15v50h47zM871 592l-738 -215h-30v42l691 196h77v-23zM96 624h-48q0 19 15 34t33 15v-49z" />
    <glyph glyph-name="ampersand" unicode="&#x26;" 
d="M871 11l9 50h48q0 -20 -15.5 -35t-41.5 -15h-768l-7 50h775v-50zM871 624h-768v49h768v-49zM871 592l-738 -215h-30v42l691 196h77v-23zM871 69h-29l-739 215v23h79l689 -197v-41zM928 69h-48v300h48v-300zM96 69h-48v300h48v-300zM96 377h-48v238h48v-238zM96 11
q-18 0 -33 15t-15 35h48v-50zM96 624h-48q0 19 15 34t33 15v-49z" />
    <glyph glyph-name="quotesingle" unicode="'" horiz-adv-x="150" 
d="M96 624h-48q0 19 15 34t33 15v-49zM96 377h-48v238h48v-238z" />
    <glyph glyph-name="parenleft" unicode="(" horiz-adv-x="528" 
d="M484 624h-381v49h381v-49zM96 624h-48q0 19 15 34t33 15v-49zM96 377h-48v238h48v-238zM484 11h-381v50h381v-50zM96 69h-48v300h48v-300zM96 11q-18 0 -33 15t-15 35h48v-50z" />
    <glyph glyph-name="parenright" unicode=")" horiz-adv-x="528" 
d="M431 624v49q19 0 34 -15t15 -34h-49zM480 377h-49v238h49v-238zM424 624h-380v49h380v-49zM480 69h-49v300h49v-300zM480 61q0 -20 -15 -35t-34 -15v50h49zM424 11h-380v50h380v-50z" />
    <glyph glyph-name="asterisk" unicode="*" 
d="M871 377h-29l-333 97v-97h-47v96l-329 -96h-30v42l303 85l-303 88v23h79l280 -80v80h47v-82l285 82h77v-23l-302 -88l302 -85v-42z" />
    <glyph glyph-name="plus" unicode="+" 
d="M509 380h-47v237h47v-237zM871 319h-768v50h768v-50zM509 71h-47v237h47v-237z" />
    <glyph glyph-name="comma" unicode="," horiz-adv-x="147" 
d="M96 69h-48v63h48v-63zM96 11q-18 0 -33 15t-15 35h48v-50z" />
    <glyph glyph-name="hyphen" unicode="-" horiz-adv-x="895" 
d="M784 319h-690v50h690v-50z" />
    <glyph glyph-name="period" unicode="." horiz-adv-x="158" 
d="M96 11q-18 0 -33 15t-15 35h48v-50z" />
    <glyph glyph-name="slash" unicode="/" 
d="M871 592l-738 -215h-30v42l691 196h77v-23z" />
    <glyph glyph-name="zero" unicode="0" 
d="M871 11l9 50h48q0 -20 -15.5 -35t-41.5 -15h-768l-7 50h775v-50zM871 624h-768v49h768v-49zM96 69h-48v300h48v-300zM928 69h-48v300h48v-300zM96 377h-48v238h48v-238zM928 377h-48v238h48v-238zM96 11q-18 0 -33 15t-15 35h48v-50zM880 624v49q19 0 33.5 -15t14.5 -34
h-48zM96 624h-48q0 19 15 34t33 15v-49z" />
    <glyph glyph-name="one" unicode="1" horiz-adv-x="157" 
d="M96 624h-48q0 19 15 34t33 15v-49zM96 377h-48v238h48v-238zM96 69h-48v300h48v-300zM96 11q-18 0 -33 15t-15 35h48v-50z" />
    <glyph glyph-name="two" unicode="2" 
d="M871 11l9 50h48q0 -20 -15.5 -35t-41.5 -15h-768l-7 50h775v-50zM871 319h-768v50h768v-50zM871 624h-768v49h768v-49zM96 69h-48v241h48v-241zM928 377h-48v238h48v-238zM928 369q0 -20 -14.5 -35t-33.5 -15v50h48zM96 319h-48q0 20 15 35t33 15v-50zM96 11
q-18 0 -33 15t-15 35h48v-50zM880 624v49q19 0 33.5 -15t14.5 -34h-48zM96 624h-48q0 19 15 34t33 15v-49z" />
    <glyph glyph-name="three" unicode="3" 
d="M871 11l9 50h48q0 -20 -15.5 -35t-41.5 -15h-768l-7 50h775v-50zM871 319h-768v50h768v-50zM871 624h-768v49h768v-49zM928 69h-48v300h48v-300zM928 377h-48v238h48v-238zM96 11q-18 0 -33 15t-15 35h48v-50zM880 624v49q19 0 33.5 -15t14.5 -34h-48zM96 624h-48
q0 19 15 34t33 15v-49z" />
    <glyph glyph-name="four" unicode="4" 
d="M880 624v49q19 0 33.5 -15t14.5 -34h-48zM928 377h-48v238h48v-238zM928 69h-48v300h48v-300zM928 61q0 -20 -14.5 -35t-33.5 -15v50h48zM871 319h-768v50h768v-50zM96 624h-48q0 19 15 34t33 15v-49zM96 377h-48v238h48v-238zM96 319q-18 0 -33 15t-15 35h48v-50z" />
    <glyph glyph-name="five" unicode="5" 
d="M871 11l9 50h48q0 -20 -15.5 -35t-41.5 -15h-768l-7 50h775v-50zM871 319h-768v50h768v-50zM871 624h-768v49h768v-49zM928 69h-48v239h48v-239zM96 377h-48v238h48v-238zM880 319v50q19 0 33.5 -15t14.5 -35h-48zM96 319q-18 0 -33 15t-15 35h48v-50zM96 11
q-18 0 -33 15t-15 35h48v-50zM880 624v49q19 0 33.5 -15t14.5 -34h-48zM96 624h-48q0 19 15 34t33 15v-49z" />
    <glyph glyph-name="six" unicode="6" 
d="M871 11l9 50h48q0 -20 -15.5 -35t-41.5 -15h-768l-7 50h775v-50zM871 319h-768v50h768v-50zM871 624h-768v49h768v-49zM96 69h-48v300h48v-300zM928 69h-48v241h48v-241zM96 377h-48v238h48v-238zM880 319v50q19 0 33.5 -15t14.5 -35h-48zM96 11q-18 0 -33 15t-15 35h48
v-50zM880 624v49q19 0 33.5 -15t14.5 -34h-48zM96 624h-48q0 19 15 34t33 15v-49z" />
    <glyph glyph-name="seven" unicode="7" 
d="M871 624h-768v49h768v-49zM871 592l-738 -523h-30v41l691 505h77v-23zM96 624h-48q0 19 15 34t33 15v-49z" />
    <glyph glyph-name="eight" unicode="8" 
d="M871 11l9 50h48q0 -20 -15.5 -35t-41.5 -15h-768l-7 50h775v-50zM871 319h-768v50h768v-50zM871 624h-768v49h768v-49zM96 69h-48v300h48v-300zM928 69h-48v300h48v-300zM96 377h-48v238h48v-238zM928 377h-48v238h48v-238zM96 11q-18 0 -33 15t-15 35h48v-50zM880 624
v49q19 0 33.5 -15t14.5 -34h-48zM96 624h-48q0 19 15 34t33 15v-49z" />
    <glyph glyph-name="nine" unicode="9" 
d="M880 624v49q19 0 33.5 -15t14.5 -34h-48zM928 377h-48v238h48v-238zM928 69h-48v300h48v-300zM871 624h-768v49h768v-49zM928 61q0 -20 -15.5 -35t-41.5 -15l9 50h48zM871 319h-768v50h768v-50zM96 624h-48q0 19 15 34t33 15v-49zM96 377h-48v238h48v-238zM96 319
q-18 0 -33 15t-15 35h48v-50z" />
    <glyph glyph-name="colon" unicode=":" horiz-adv-x="158" 
d="M96 624h-48q0 19 15 34t33 15v-49zM96 11q-18 0 -33 15t-15 35h48v-50z" />
    <glyph glyph-name="semicolon" unicode=";" horiz-adv-x="153" 
d="M96 624h-48q0 19 15 34t33 15v-49zM96 69h-48v74h48v-74zM96 11q-18 0 -33 15t-15 35h48v-50z" />
    <glyph glyph-name="less" unicode="&#x3c;" 
d="M871 592l-738 -215h-30v42l691 196h77v-23zM871 69h-29l-739 215v23h79l689 -197v-41z" />
    <glyph glyph-name="equal" unicode="=" 
d="M869 380h-766v49h766v-49zM869 256h-766v51h766v-51z" />
    <glyph glyph-name="greater" unicode="&#x3e;" 
d="M871 377h-29l-739 215v23h79l689 -196v-42zM871 284l-738 -215h-30v41l691 197h77v-23z" />
    <glyph glyph-name="question" unicode="?" 
d="M880 624v49q19 0 33.5 -15t14.5 -34h-48zM928 377h-48v238h48v-238zM928 369q0 -20 -14.5 -35t-33.5 -15v50h48zM871 624h-768v49h768v-49zM871 319h-768v50h768v-50zM96 624h-48q0 19 15 34t33 15v-49zM96 319h-48q0 20 15 35t33 15v-50zM96 69h-48v238h48v-238zM96 11
q-18 0 -33 15t-15 35h48v-50z" />
    <glyph glyph-name="at" unicode="@" 
d="M880 624v49q19 0 33.5 -15t14.5 -34h-48zM928 377h-48v238h48v-238zM871 624h-768v49h768v-49zM566 391h-48v89h48v-89zM871 319h-768v50h768v-50zM509 494l-376 -117h-30v42l329 98h77v-23zM96 624h-48q0 19 15 34t33 15v-49zM96 526h-48v89h48v-89z" />
    <glyph glyph-name="A" unicode="A" 
d="M880 624v49q19 0 33.5 -15t14.5 -34h-48zM928 377h-48v238h48v-238zM928 69h-48v300h48v-300zM871 624h-768v49h768v-49zM928 61q0 -20 -15.5 -35t-41.5 -15l9 50h48zM871 319h-768v50h768v-50zM96 624h-48q0 19 15 34t33 15v-49zM96 377h-48v238h48v-238zM96 69h-48v300
h48v-300zM96 11q-18 0 -33 15t-15 35h48v-50z" />
    <glyph glyph-name="B" unicode="B" 
d="M871 11l9 50h48q0 -20 -15.5 -35t-41.5 -15h-768l-7 50h775v-50zM871 319h-768v50h768v-50zM871 624h-768v49h768v-49zM96 69h-48v300h48v-300zM928 69h-48v241h48v-241zM96 377h-48v238h48v-238zM928 615l-212 -238h-48l212 238h48zM880 319v50q19 0 33.5 -15t14.5 -35
h-48zM96 11q-18 0 -33 15t-15 35h48v-50zM880 624v49q19 0 33.5 -15t14.5 -34h-48zM96 624h-48q0 19 15 34t33 15v-49z" />
    <glyph glyph-name="C" unicode="C" 
d="M871 11l9 50h48q0 -20 -15.5 -35t-41.5 -15h-768l-7 50h775v-50zM871 624h-768v49h768v-49zM96 69h-48v300h48v-300zM96 377h-48v238h48v-238zM96 11q-18 0 -33 15t-15 35h48v-50zM880 624v49q19 0 33.5 -15t14.5 -34h-48zM96 624h-48q0 19 15 34t33 15v-49z" />
    <glyph glyph-name="D" unicode="D" 
d="M871 11l9 50h48q0 -20 -15.5 -35t-41.5 -15h-768l-7 50h775v-50zM871 624h-768v49h768v-49zM96 69h-48v300h48v-300zM928 69h-48v300h48v-300zM96 377h-48v238h48v-238zM928 377h-48v238h48v-238zM96 11h-48v50h48v-50zM96 624h-48v49h48v-49zM880 624v49q19 0 33.5 -15
t14.5 -34h-48z" />
    <glyph glyph-name="E" unicode="E" 
d="M871 11l9 50h48q0 -20 -15.5 -35t-41.5 -15h-768l-7 50h775v-50zM871 319h-768v50h768v-50zM871 624h-768v49h768v-49zM96 69h-48v300h48v-300zM96 377h-48v238h48v-238zM96 11q-18 0 -33 15t-15 35h48v-50zM880 624v49q19 0 33.5 -15t14.5 -34h-48zM96 624h-48
q0 19 15 34t33 15v-49z" />
    <glyph glyph-name="F" unicode="F" 
d="M880 624v49q19 0 33.5 -15t14.5 -34h-48zM871 624h-768v49h768v-49zM871 319h-768v50h768v-50zM96 624h-48q0 19 15 34t33 15v-49zM96 377h-48v238h48v-238zM96 69h-48v300h48v-300zM96 11q-18 0 -33 15t-15 35h48v-50z" />
    <glyph glyph-name="G" unicode="G" 
d="M871 11l9 50h48q0 -20 -15.5 -35t-41.5 -15h-768l-7 50h775v-50zM871 624h-768v49h768v-49zM96 69h-48v300h48v-300zM928 69h-48v300h48v-300zM96 377h-48v238h48v-238zM96 11q-18 0 -33 15t-15 35h48v-50zM880 624v49q19 0 33.5 -15t14.5 -34h-48zM96 624h-48
q0 19 15 34t33 15v-49z" />
    <glyph glyph-name="H" unicode="H" 
d="M880 624v49q19 0 33.5 -15t14.5 -34h-48zM928 377h-48v238h48v-238zM928 69h-48v300h48v-300zM928 61q0 -20 -14.5 -35t-33.5 -15v50h48zM871 319h-768v50h768v-50zM96 624h-48q0 19 15 34t33 15v-49zM96 377h-48v238h48v-238zM96 69h-48v300h48v-300zM96 11
q-18 0 -33 15t-15 35h48v-50z" />
    <glyph glyph-name="I" unicode="I" horiz-adv-x="157" 
d="M96 624h-48q0 19 15 34t33 15v-49zM96 377h-48v238h48v-238zM96 69h-48v300h48v-300zM96 11q-18 0 -33 15t-15 35h48v-50z" />
    <glyph glyph-name="J" unicode="J" 
d="M880 624v49q19 0 33.5 -15t14.5 -34h-48zM928 377h-48v238h48v-238zM928 69h-48v300h48v-300zM928 61q0 -20 -14.5 -35t-33.5 -15v50h48zM871 11h-768v50h768v-50zM96 11q-18 0 -33 15t-15 35h48v-50z" />
    <glyph glyph-name="K" unicode="K" 
d="M880 319v50q19 0 33.5 -15t14.5 -35h-48zM928 69h-48v239h48v-239zM928 61q0 -20 -14.5 -35t-33.5 -15v50h48zM871 592l-738 -215h-30v42l691 196h77v-23zM871 319h-768v50h768v-50zM96 624h-48q0 19 15 34t33 15v-49zM96 377h-48v238h48v-238zM96 69h-48v300h48v-300z
M96 11q-18 0 -33 15t-15 35h48v-50z" />
    <glyph glyph-name="L" unicode="L" 
d="M928 61q0 -20 -14.5 -35t-33.5 -15v50h48zM96 624h-48q0 19 15 34t33 15v-49zM871 11h-768l-7 50h775v-50zM96 377h-48v238h48v-238zM96 69h-48v300h48v-300zM96 11q-18 0 -33 15t-15 35h48v-50z" />
    <glyph glyph-name="M" unicode="M" horiz-adv-x="1263" 
d="M1152 624v49q17 0 32.5 -15t15.5 -34h-48zM1200 377h-48v238h48v-238zM1142 624h-546v49h546v-49zM1200 69h-48v300h48v-300zM1200 61q0 -20 -15 -35t-33 -15v50h48zM643 377h-47v238h47v-238zM586 624h-483v49h483v-49zM643 69h-47v300h47v-300zM96 624h-48q0 19 15 34
t33 15v-49zM643 61q0 -20 -14.5 -35t-32.5 -15v50h47zM96 377h-48v238h48v-238zM96 69h-48v300h48v-300zM96 11q-18 0 -33 15t-15 35h48v-50z" />
    <glyph glyph-name="N" unicode="N" 
d="M880 624v49q19 0 33.5 -15t14.5 -34h-48zM928 377h-48v238h48v-238zM928 69h-48v300h48v-300zM871 624h-768v49h768v-49zM928 61q0 -20 -15.5 -35t-41.5 -15l9 50h48zM96 624h-48q0 19 15 34t33 15v-49zM96 377h-48v238h48v-238zM96 69h-48v300h48v-300zM96 11
q-18 0 -33 15t-15 35h48v-50z" />
    <glyph glyph-name="O" unicode="O" 
d="M871 11l9 50h48q0 -20 -15.5 -35t-41.5 -15h-768l-7 50h775v-50zM871 624h-768v49h768v-49zM96 69h-48v300h48v-300zM928 69h-48v300h48v-300zM96 377h-48v238h48v-238zM928 377h-48v238h48v-238zM96 11q-18 0 -33 15t-15 35h48v-50zM880 624v49q19 0 33.5 -15t14.5 -34
h-48zM96 624h-48q0 19 15 34t33 15v-49z" />
    <glyph glyph-name="P" unicode="P" 
d="M880 624v49q19 0 33.5 -15t14.5 -34h-48zM928 377h-48v238h48v-238zM928 369q0 -20 -14.5 -35t-33.5 -15v50h48zM871 624h-768v49h768v-49zM871 319h-768v50h768v-50zM96 624h-48q0 19 15 34t33 15v-49zM96 377h-48v238h48v-238zM96 69h-48v300h48v-300zM96 11
q-18 0 -33 15t-15 35h48v-50z" />
    <glyph glyph-name="Q" unicode="Q" 
d="M871 11l9 50h48q0 -20 -15.5 -35t-41.5 -15h-768l-7 50h775v-50zM871 624h-768v49h768v-49zM871 69h-29l-739 215v23h79l689 -197v-41zM96 69h-48v300h48v-300zM928 69h-48v300h48v-300zM96 377h-48v238h48v-238zM928 377h-48v238h48v-238zM96 11q-18 0 -33 15t-15 35h48
v-50zM880 624v49q19 0 33.5 -15t14.5 -34h-48zM96 624h-48q0 19 15 34t33 15v-49z" />
    <glyph glyph-name="R" unicode="R" 
d="M871 69h-29l-739 215v23l79 12h-79v50h768v-50h-689l689 -209v-41zM871 624h-768v49h768v-49zM96 69h-48v300h48v-300zM928 377h-48v238h48v-238zM96 377h-48v238h48v-238zM928 369q0 -20 -14.5 -35t-33.5 -15v50h48zM96 11q-18 0 -33 15t-15 35h48v-50zM880 624v49
q19 0 33.5 -15t14.5 -34h-48zM96 624h-48q0 19 15 34t33 15v-49z" />
    <glyph glyph-name="S" unicode="S" 
d="M871 11l9 50h48q0 -20 -15.5 -35t-41.5 -15h-768l-7 50h775v-50zM871 319h-768v50h768v-50zM871 624h-768v49h768v-49zM928 69h-48v239h48v-239zM96 377h-48v238h48v-238zM880 319v50q19 0 33.5 -15t14.5 -35h-48zM96 319q-18 0 -33 15t-15 35h48v-50zM96 11
q-18 0 -33 15t-15 35h48v-50zM880 624v49q19 0 33.5 -15t14.5 -34h-48zM96 624h-48q0 19 15 34t33 15v-49z" />
    <glyph glyph-name="T" unicode="T" 
d="M880 624v49q19 0 33.5 -15t14.5 -34h-48zM871 624h-768v49h768v-49zM509 377h-47v238h47v-238zM509 69h-47v300h47v-300zM96 624h-48q0 19 15 34t33 15v-49zM509 11q-17 0 -32 15t-15 35h47v-50z" />
    <glyph glyph-name="U" unicode="U" 
d="M880 624v49q19 0 33.5 -15t14.5 -34h-48zM928 377h-48v238h48v-238zM928 69h-48v300h48v-300zM928 61q0 -20 -14.5 -35t-33.5 -15v50h48zM96 624h-48q0 19 15 34t33 15v-49zM871 11h-768l-7 50h775v-50zM96 377h-48v238h48v-238zM96 69h-48v300h48v-300zM96 11
q-18 0 -33 15t-15 35h48v-50z" />
    <glyph glyph-name="V" unicode="V" 
d="M880 624v49q19 0 33.5 -15t14.5 -34h-48zM928 377h-48v238h48v-238zM928 330l-794 -319h-28v50l774 308h48v-39zM96 624h-48q0 19 15 34t33 15v-49zM96 377h-48v238h48v-238zM96 69h-48v300h48v-300zM96 11q-18 0 -33 15t-15 35h48v-50z" />
    <glyph glyph-name="W" unicode="W" horiz-adv-x="1263" 
d="M1151 626v49q17 0 32 -14.5t15 -34.5h-47zM1198 317h-47v300h47v-300zM1198 71h-47v237h47v-237zM1198 63q0 -21 -15 -36t-32 -15v51h47zM594 626v49q19 0 33.5 -14.5t14.5 -34.5h-48zM642 317h-48v300h48v-300zM1141 12h-547v51h547v-51zM642 71h-48v237h48v-237z
M95 626h-49q0 20 15 34.5t34 14.5v-49zM95 317h-49v300h49v-300zM584 12h-481v51h481v-51zM95 71h-49v237h49v-237zM95 12q-19 0 -34 15.5t-15 35.5h49v-51z" />
    <glyph glyph-name="X" unicode="X" 
d="M871 69h-29l-355 251l-354 -251h-30v41l340 241l-340 241v23h54l329 -233l329 233h56v-23l-341 -241l341 -241v-41z" />
    <glyph glyph-name="Y" unicode="Y" 
d="M880 624v49q19 0 33.5 -15t14.5 -34h-48zM928 377h-48v238h48v-238zM928 69h-48v300h48v-300zM928 61q0 -20 -14.5 -35t-33.5 -15v50h48zM871 319h-768v50h768v-50zM96 624h-48q0 19 15 34t33 15v-49zM96 377h-48v238h48v-238zM96 319q-18 0 -33 15t-15 35h48v-50z" />
    <glyph glyph-name="Z" unicode="Z" 
d="M871 11l9 50h48q0 -20 -15.5 -35t-41.5 -15h-768l-7 50h775v-50zM871 624h-768v49h768v-49zM871 592l-768 -229v51l691 201h77v-23zM96 69h-48v285h48v-285zM96 363h-48q0 21 15 36t33 15v-51zM96 11q-18 0 -33 15t-15 35h48v-50zM96 624h-48q0 19 15 34t33 15v-49z" />
    <glyph glyph-name="bracketleft" unicode="[" horiz-adv-x="528" 
d="M484 624h-381v49h381v-49zM96 624h-48q0 19 15 34t33 15v-49zM96 377h-48v238h48v-238zM484 11h-381v50h381v-50zM96 69h-48v300h48v-300zM96 11q-18 0 -33 15t-15 35h48v-50z" />
    <glyph glyph-name="backslash" unicode="\" 
d="M855 377h-29l-738 215v23h77l690 -196v-42z" />
    <glyph glyph-name="bracketright" unicode="]" horiz-adv-x="528" 
d="M431 624v49q19 0 34 -15t15 -34h-49zM480 377h-49v238h49v-238zM424 624h-380v49h380v-49zM480 69h-49v300h49v-300zM480 61q0 -20 -15 -35t-34 -15v50h49zM424 11h-380v50h380v-50z" />
    <glyph glyph-name="underscore" unicode="_" 
d="M928 61q0 -20 -14.5 -35t-33.5 -15v50h48zM871 11h-768v50h768v-50zM96 11q-18 0 -33 15t-15 35h48v-50z" />
    <glyph glyph-name="grave" unicode="`" horiz-adv-x="399" 
d="M363 641h-47l-79 106h47z" />
    <glyph glyph-name="a" unicode="a" 
d="M928 69h-48v300h48v-300zM928 61q0 -20 -14.5 -35t-33.5 -15v50h48zM871 319h-768v50h768v-50zM871 284l-768 -213v50l691 186h77v-23zM871 11h-768v50h768v-50z" />
    <glyph glyph-name="b" unicode="b" 
d="M880 319v50q19 0 33.5 -15t14.5 -35h-48zM928 69h-48v239h48v-239zM928 61q0 -20 -14.5 -35t-33.5 -15v50h48zM871 319h-768v50h768v-50zM96 624h-48q0 19 15 34t33 15v-49zM871 11h-768l-7 50h775v-50zM96 377h-48v238h48v-238zM96 69h-48v300h48v-300zM96 11
q-18 0 -33 15t-15 35h48v-50z" />
    <glyph glyph-name="c" unicode="c" 
d="M880 319v50q19 0 33.5 -15t14.5 -35h-48zM928 61q0 -20 -14.5 -35t-33.5 -15v50h48zM871 319h-768v50h768v-50zM871 11h-768v50h768v-50zM96 319h-48q0 20 15 35t33 15v-50zM96 69h-48v241h48v-241zM96 11q-18 0 -33 15t-15 35h48v-50z" />
    <glyph glyph-name="d" unicode="d" 
d="M880 624v49q19 0 33.5 -15t14.5 -34h-48zM928 377h-48v238h48v-238zM928 69h-48v300h48v-300zM928 61q0 -20 -14.5 -35t-33.5 -15v50h48zM871 319h-768v50h768v-50zM871 11h-768v50h768v-50zM96 319h-48q0 20 15 35t33 15v-50zM96 69h-48v241h48v-241zM96 11
q-18 0 -33 15t-15 35h48v-50z" />
    <glyph glyph-name="e" unicode="e" 
d="M928 61q0 -20 -14.5 -35t-33.5 -15v50h48zM871 319h-768v50h768v-50zM871 284l-738 -215h-30v41l691 197h77v-23zM871 11h-768v50h768v-50zM96 319h-48q0 20 15 35t33 15v-50zM96 69h-48v238h48v-238zM96 11q-18 0 -33 15t-15 35h48v-50z" />
    <glyph glyph-name="f" unicode="f" 
d="M871 592l-738 -215h-30v42l691 196h77v-23zM871 319h-768v50h768v-50zM96 69h-48v300h48v-300zM96 11q-18 0 -33 15t-15 35h48v-50z" />
    <glyph glyph-name="g" unicode="g" 
d="M871 69h-29l-739 215v23l79 12h-79v50h768v-50h-689l689 -209v-41zM871 11h-768v50h768v-50zM928 69h-48v238h48v-238zM880 319v50q19 0 33.5 -15t14.5 -35h-48zM928 61q0 -20 -14.5 -35t-33.5 -15v50h48zM96 11q-18 0 -33 15t-15 35h48v-50z" />
    <glyph glyph-name="h" unicode="h" 
d="M880 319v50q19 0 33.5 -15t14.5 -35h-48zM928 69h-48v239h48v-239zM928 61q0 -20 -14.5 -35t-33.5 -15v50h48zM871 319h-768v50h768v-50zM96 624h-48q0 19 15 34t33 15v-49zM96 377h-48v238h48v-238zM96 69h-48v300h48v-300zM96 11q-18 0 -33 15t-15 35h48v-50z" />
    <glyph glyph-name="i" unicode="i" horiz-adv-x="153" 
d="M96 624h-48q0 19 15 34t33 15v-49zM96 69h-48v300h48v-300zM96 11q-18 0 -33 15t-15 35h48v-50z" />
    <glyph glyph-name="j" unicode="j" 
d="M880 624v49q19 0 33.5 -15t14.5 -34h-48zM928 69h-48v300h48v-300zM928 61q0 -20 -14.5 -35t-33.5 -15v50h48zM871 11h-768v50h768v-50zM96 11q-18 0 -33 15t-15 35h48v-50z" />
    <glyph glyph-name="k" unicode="k" 
d="M871 69h-29l-739 215v23l79 12h-79v50h768v-50h-689l689 -209v-41zM96 69h-48v300h48v-300zM96 377h-48v238h48v-238zM96 11q-18 0 -33 15t-15 35h48v-50zM96 624h-48q0 19 15 34t33 15v-49z" />
    <glyph glyph-name="l" unicode="l" horiz-adv-x="154" 
d="M96 624h-48q0 19 15 34t33 15v-49zM96 377h-48v238h48v-238zM96 69h-48v300h48v-300zM96 11q-18 0 -33 15t-15 35h48v-50z" />
    <glyph glyph-name="m" unicode="m" horiz-adv-x="1263" 
d="M1152 316v49q17 0 32.5 -15t15.5 -34h-48zM1200 69h-48v239h48v-239zM1200 61q0 -20 -15 -35t-33 -15v50h48zM1142 316h-546v49h546v-49zM643 69h-47v247l47 -8v-239zM643 61q0 -20 -14.5 -35t-32.5 -15v50h47zM586 316h-483v49h483v-49zM96 316h-48q0 19 15 34t33 15
v-49zM96 69h-48v239h48v-239zM96 11q-18 0 -33 15t-15 35h48v-50z" />
    <glyph glyph-name="n" unicode="n" 
d="M880 319v50q19 0 33.5 -15t14.5 -35h-48zM928 69h-48v241h48v-241zM928 61q0 -20 -14.5 -35t-33.5 -15v50h48zM871 319h-768v50h768v-50zM96 319h-48q0 20 15 35t33 15v-50zM96 69h-48v241h48v-241zM96 11q-18 0 -33 15t-15 35h48v-50z" />
    <glyph glyph-name="o" unicode="o" 
d="M880 319v50q19 0 33.5 -15t14.5 -35h-48zM928 69h-48v241h48v-241zM928 61q0 -20 -14.5 -35t-33.5 -15v50h48zM871 319h-768v50h768v-50zM871 11h-768v50h768v-50zM96 319h-48q0 20 15 35t33 15v-50zM96 69h-48v241h48v-241zM96 11q-18 0 -33 15t-15 35h48v-50z" />
    <glyph glyph-name="p" unicode="p" 
d="M882 317v50q18 0 33.5 -15t15.5 -35h-49zM931 71h-49v237h49v-237zM931 63q0 -21 -15.5 -36t-33.5 -15v51h49zM872 317h-766v50h766v-50zM872 12h-766v51h766v-51zM98 317h-48q0 21 14.5 35.5t33.5 14.5v-50zM98 71h-48v237h48v-237zM98 -112h-48v175h48v-175zM98 -172
q-19 0 -33.5 15.5t-14.5 35.5h48v-51z" />
    <glyph glyph-name="q" unicode="q" 
d="M880 316v49q19 0 33.5 -15t14.5 -34h-48zM928 69h-48v238h48v-238zM928 -114h-48v175h48v-175zM872 316h-766v49h766v-49zM928 -123q0 -20 -15.5 -35t-40.5 -15l8 50h48zM872 11h-766v50h766v-50zM96 316h-48q0 19 15 34t33 15v-49zM96 69h-48v238h48v-238zM96 11
q-18 0 -33 15t-15 35h48v-50z" />
    <glyph glyph-name="r" unicode="r" 
d="M877 319v50q18 0 33 -15t15 -35h-48zM871 319h-768v50h768v-50zM96 319h-48q0 20 15 35t33 15v-50zM96 69h-48v241h48v-241zM96 11q-18 0 -33 15t-15 35h48v-50z" />
    <glyph glyph-name="s" unicode="s" 
d="M871 69h-29l-739 215v23l79 12h-79v50h768v-50h-689l689 -209v-41zM871 11h-768v50h768v-50zM96 11q-18 0 -33 15t-15 35h48v-50z" />
    <glyph glyph-name="t" unicode="t" 
d="M871 319h-768v50h768v-50zM96 624h-48q0 19 15 34t33 15v-49zM96 377h-48v238h48v-238zM96 69h-48v300h48v-300zM96 11q-18 0 -33 15t-15 35h48v-50z" />
    <glyph glyph-name="u" unicode="u" 
d="M928 69h-48v300h48v-300zM928 61q0 -20 -14.5 -35t-33.5 -15v50h48zM871 11h-768v50h768v-50zM96 69h-48v300h48v-300zM96 11q-18 0 -33 15t-15 35h48v-50z" />
    <glyph glyph-name="v" unicode="v" 
d="M871 284l-738 -215h-30v41l691 197h77v-23zM96 69h-48v300h48v-300z" />
    <glyph glyph-name="w" unicode="w" horiz-adv-x="1259" 
d="M1152 319v50q17 0 32.5 -15t15.5 -35h-48zM1200 71h-48v239h48v-239zM1200 64q0 -20 -15 -35t-33 -15v50h48zM596 319v50q18 0 32.5 -15t14.5 -35h-47zM1142 14h-546v50h546v-50zM643 71h-47v239h47v-239zM96 319h-48q0 20 15 35t33 15v-50zM586 14h-483v50h483v-50z
M96 71h-48v239h48v-239zM96 14q-18 0 -33 15t-15 35h48v-50z" />
    <glyph glyph-name="x" unicode="x" 
d="M871 69h-29l-355 103l-354 -103h-30v41l302 86l-302 88v23h79l305 -88l307 88h77v-23l-302 -88l302 -86v-41z" />
    <glyph glyph-name="y" unicode="y" 
d="M928 69h-48v300h48v-300zM928 61q0 -20 -14.5 -35t-33.5 -15v50h48zM871 69h-29l-739 215v23h79l689 -197v-41zM871 11h-768v50h768v-50zM96 11q-18 0 -33 15t-15 35h48v-50z" />
    <glyph glyph-name="z" unicode="z" 
d="M928 61q0 -20 -14.5 -35t-33.5 -15v50h48zM871 319h-768v50h768v-50zM871 284l-738 -215h-30v41l691 197h77v-23zM871 11h-768v50h768v-50z" />
    <glyph glyph-name="braceleft" unicode="{" horiz-adv-x="528" 
d="M484 624h-381v49h381v-49zM96 624h-48q0 19 15 34t33 15v-49zM96 377h-48v238h48v-238zM484 11h-381v50h381v-50zM96 69h-48v300h48v-300zM96 11q-18 0 -33 15t-15 35h48v-50z" />
    <glyph glyph-name="bar" unicode="|" horiz-adv-x="157" 
d="M96 624h-48q0 19 15 34t33 15v-49zM96 377h-48v238h48v-238zM96 69h-48v300h48v-300zM96 11q-18 0 -33 15t-15 35h48v-50z" />
    <glyph glyph-name="braceright" unicode="}" horiz-adv-x="528" 
d="M431 624v49q19 0 34 -15t15 -34h-49zM480 377h-49v238h49v-238zM424 624h-380v49h380v-49zM480 69h-49v300h49v-300zM480 61q0 -20 -15 -35t-34 -15v50h49zM424 11h-380v50h380v-50z" />
    <glyph glyph-name="asciitilde" unicode="~" horiz-adv-x="703" 
d="M638 592l-221 -89h-29v40l173 72h77v-23zM370 503h-49v112h49v-112zM305 592l-221 -89h-30v40l174 72h77v-23z" />
    <glyph glyph-name="exclamdown" unicode="&#xa1;" horiz-adv-x="158" 
d="M106 2q-18 0 -33 15t-15 35h48v-50zM106 61h-48v237h48v-237zM106 615h-48q0 20 15 34.5t33 14.5v-49z" />
    <glyph glyph-name="cent" unicode="&#xa2;" horiz-adv-x="931" 
d="M860 319v50q18 0 33 -15t15 -35h-48zM908 61q0 -20 -15 -35t-33 -15v50h48zM850 319h-766v50h766v-50zM850 11h-766v50h766v-50zM76 319h-48q0 20 14.5 35t33.5 15v-50zM76 69h-48v241h48v-241zM76 11q-19 0 -33.5 15t-14.5 35h48v-50zM494 393h-45v72h45v-72zM494 -80
h-45v72h45v-72z" />
    <glyph glyph-name="yen" unicode="&#xa5;" horiz-adv-x="1059" 
d="M913 319h-334v-54h337v-45h-337v-70h340v-42h-340v-39h-49v39h-335v42h335v70h-335v45h335v54h-384v50h767v-50zM971 377h-48v238h48v-238zM139 377h-49v238h49v-238zM139 624h-49q0 19 15 34t34 15v-49zM579 61q0 -20 -15 -35t-34 -15v50h49zM139 319q-18 0 -33.5 15
t-15.5 35h49v-50zM923 369h48q0 -20 -15 -35t-33 -15v50zM923 624v49q18 0 33 -15t15 -34h-48z" />
    <glyph glyph-name="brokenbar" unicode="&#xa6;" horiz-adv-x="152" 
d="M76 365h-40v398h40v-398zM76 -238h-40v399h40v-399z" />
    <glyph glyph-name="dieresis" unicode="&#xa8;" horiz-adv-x="637" 
d="M484 671q0 -25 -15.5 -41.5t-37.5 -16.5q-21 0 -36 16.5t-15 41.5q0 24 15 41t36 17q22 0 37.5 -17t15.5 -41zM313 671q0 -25 -15 -41.5t-36 -16.5q-22 0 -37.5 16.5t-15.5 41.5q0 24 15 41t38 17q21 0 36 -17t15 -41z" />
    <glyph glyph-name="copyright" unicode="&#xa9;" horiz-adv-x="698" 
d="M45 305q0 63 24 119t66 97t97.5 65t118.5 24t118.5 -24t97.5 -65t66 -97t24 -119t-24 -119t-66 -97.5t-97.5 -65.5t-118.5 -24t-118.5 24t-97.5 65.5t-66 97.5t-24 119zM81 304q0 -57 21.5 -106t58 -86t86 -58t105.5 -21t105.5 21t86.5 58t58.5 86t21.5 106
q0 56 -21.5 105.5t-58.5 86.5t-86.5 58.5t-105.5 21.5t-105.5 -21.5t-86 -58.5t-58 -86.5t-21.5 -105.5zM416 381q-29 39 -70 39q-38 0 -61 -31.5t-23 -88.5q0 -52 24.5 -85t61.5 -33q18 0 36.5 9t31.5 25l55 -38q-42 -68 -125 -68q-33 0 -61 14.5t-48 40t-31.5 60
t-11.5 75.5t10.5 76t30 61t48 40.5t63.5 14.5q86 0 127 -74z" />
    <glyph glyph-name="guillemotleft" unicode="&#xab;" horiz-adv-x="371" 
d="M94 332l101 -53v-66l-154 85v65l154 89v-68zM241 332l100 -53v-66l-154 85v65l154 89v-68z" />
    <glyph glyph-name="logicalnot" unicode="&#xac;" horiz-adv-x="587" 
d="M536 253h-39v175h-484v44h523v-219z" />
    <glyph glyph-name="registered" unicode="&#xae;" horiz-adv-x="594" 
d="M297 576q-47 0 -83.5 -16.5t-62.5 -43t-39.5 -60.5t-13.5 -68q0 -35 13.5 -69t39.5 -60.5t62.5 -43t83.5 -16.5q43 0 82 14.5t67.5 40t45.5 60t17 74.5q0 34 -16 68t-44 60.5t-67 43t-85 16.5zM298 156q-54 0 -99 19t-78 51t-51 74t-18 88q0 48 18 90t51 74t78 50.5
t99 18.5t100 -18t79.5 -49.5t52.5 -74t19 -91.5q0 -46 -19.5 -88t-53 -74t-79.5 -51t-99 -19zM271 460v-57h41q27 0 27 27q0 30 -27 30h-41zM297 351h-26v-93h-50v252h90q35 0 56.5 -20.5t21.5 -59.5q0 -25 -9.5 -41t-31.5 -30l45 -101h-53z" />
    <glyph glyph-name="degree" unicode="&#xb0;" horiz-adv-x="387" 
d="M322 579q0 -34 -11.5 -64t-32 -52.5t-47.5 -35.5t-57 -13q-31 0 -58 13t-47.5 35t-32 52t-11.5 65q0 34 11.5 64.5t31.5 53t47 35.5t59 13q31 0 58 -13.5t47 -36t31.5 -52.5t11.5 -64zM282 580q0 24 -8.5 46t-23.5 38.5t-34.5 26t-41.5 9.5q-23 0 -42.5 -9.5t-34 -26
t-23 -38t-8.5 -46.5q0 -26 8.5 -47.5t23 -38t34 -25.5t42.5 -9q22 0 41.5 9.5t34.5 26t23.5 38.5t8.5 46z" />
    <glyph glyph-name="plusminus" unicode="&#xb1;" horiz-adv-x="532" 
d="M508 76h-522v43h241v225h-241v44h241v266h38v-266h242v-44h-242v-225h243v-43z" />
    <glyph glyph-name="acute" unicode="&#xb4;" horiz-adv-x="562" 
d="M364 747l-79 -106h-48l79 106h48z" />
    <glyph glyph-name="cedilla" unicode="&#xb8;" horiz-adv-x="198" 
d="M190 -206h-186v40h141v46h-110v129h49v-76h106v-139z" />
    <glyph glyph-name="ordmasculine" unicode="&#xba;" horiz-adv-x="387" 
d="M322 579q0 -34 -11.5 -64t-32 -52.5t-47.5 -35.5t-57 -13q-31 0 -58 13t-47.5 35t-32 52t-11.5 65q0 34 11.5 64.5t31.5 53t47 35.5t59 13q31 0 58 -13.5t47 -36t31.5 -52.5t11.5 -64zM282 580q0 24 -8.5 46t-23.5 38.5t-34.5 26t-41.5 9.5q-23 0 -42.5 -9.5t-34 -26
t-23 -38t-8.5 -46.5q0 -26 8.5 -47.5t23 -38t34 -25.5t42.5 -9q22 0 41.5 9.5t34.5 26t23.5 38.5t8.5 46z" />
    <glyph glyph-name="guillemotright" unicode="&#xbb;" horiz-adv-x="382" 
d="M299 334l-101 52v66l154 -85v-65l-154 -89v69zM153 334l-101 52v66l154 -85v-65l-154 -89v69z" />
    <glyph glyph-name="questiondown" unicode="&#xbf;" horiz-adv-x="965" 
d="M76 51v-50q-18 0 -33 15t-15 35h48zM28 297h48v-238h-48v238zM28 306q0 20 14.5 34.5t33.5 14.5v-49h-48zM86 51h767v-50h-767v50zM86 355h767v-49h-767v49zM860 51h49q0 -20 -15 -35t-34 -15v50zM860 355h49q0 -20 -15 -34.5t-34 -14.5v49zM860 605h49v-238h-49v238z
M860 663q18 0 33.5 -14.5t15.5 -34.5h-49v49z" />
    <glyph glyph-name="Agrave" unicode="&#xc0;" 
d="M877 624v49q19 0 33.5 -15t14.5 -34h-48zM925 377h-48v238h48v-238zM925 69h-48v300h48v-300zM868 624h-768v49h768v-49zM925 61q0 -20 -15.5 -35t-41.5 -15l9 50h48zM868 319h-768v50h768v-50zM93 624h-48q0 19 15 34t33 15v-49zM93 377h-48v238h48v-238zM93 69h-48v300
h48v-300zM93 11q-18 0 -33 15t-15 35h48v-50zM513 796h-47l-79 106h47z" />
    <glyph glyph-name="Aacute" unicode="&#xc1;" 
d="M877 624v49q19 0 33.5 -15t14.5 -34h-48zM925 377h-48v238h48v-238zM925 69h-48v300h48v-300zM868 624h-768v49h768v-49zM925 61q0 -20 -15.5 -35t-41.5 -15l9 50h48zM868 319h-768v50h768v-50zM93 624h-48q0 19 15 34t33 15v-49zM93 377h-48v238h48v-238zM93 69h-48v300
h48v-300zM93 11q-18 0 -33 15t-15 35h48v-50zM537 903l-79 -106h-48l79 106h48z" />
    <glyph glyph-name="Acircumflex" unicode="&#xc2;" 
d="M877 624v49q19 0 33.5 -15t14.5 -34h-48zM925 377h-48v238h48v-238zM925 69h-48v300h48v-300zM868 624h-768v49h768v-49zM925 61q0 -20 -15.5 -35t-41.5 -15l9 50h48zM868 319h-768v50h768v-50zM93 624h-48q0 19 15 34t33 15v-49zM93 377h-48v238h48v-238zM93 69h-48v300
h48v-300zM93 11q-18 0 -33 15t-15 35h48v-50zM611 767h-36l-102 93l-100 -93h-35l91 123h89z" />
    <glyph glyph-name="Atilde" unicode="&#xc3;" 
d="M877 624v49q19 0 33.5 -15t14.5 -34h-48zM925 377h-48v238h48v-238zM925 69h-48v300h48v-300zM868 624h-768v49h768v-49zM925 61q0 -20 -15.5 -35t-41.5 -15l9 50h48zM868 319h-768v50h768v-50zM93 624h-48q0 19 15 34t33 15v-49zM93 377h-48v238h48v-238zM93 69h-48v300
h48v-300zM93 11q-18 0 -33 15t-15 35h48v-50zM596 827h-263v-41h-26v83h265v44h24v-86z" />
    <glyph glyph-name="Adieresis" unicode="&#xc4;" 
d="M877 624v49q19 0 33.5 -15t14.5 -34h-48zM925 377h-48v238h48v-238zM925 69h-48v300h48v-300zM868 624h-768v49h768v-49zM925 61q0 -20 -15.5 -35t-41.5 -15l9 50h48zM868 319h-768v50h768v-50zM93 624h-48q0 19 15 34t33 15v-49zM93 377h-48v238h48v-238zM93 69h-48v300
h48v-300zM93 11q-18 0 -33 15t-15 35h48v-50zM601 854q0 -25 -15.5 -41.5t-37.5 -16.5q-21 0 -36 16.5t-15 41.5q0 24 15 41t36 17q22 0 37.5 -17t15.5 -41zM430 854q0 -25 -15 -41.5t-36 -16.5q-22 0 -37.5 16.5t-15.5 41.5q0 24 15 41t38 17q21 0 36 -17t15 -41z" />
    <glyph glyph-name="Aring" unicode="&#xc5;" 
d="M877 624v49q19 0 33.5 -15t14.5 -34h-48zM925 377h-48v238h48v-238zM925 69h-48v300h48v-300zM868 624h-768v49h768v-49zM925 61q0 -20 -15.5 -35t-41.5 -15l9 50h48zM868 319h-768v50h768v-50zM93 624h-48q0 19 15 34t33 15v-49zM93 377h-48v238h48v-238zM93 69h-48v300
h48v-300zM93 11q-18 0 -33 15t-15 35h48v-50zM584 841q0 -21 -7 -40t-19.5 -33t-29.5 -22t-36 -8t-36 8t-30 22t-20.5 33t-7.5 40q0 43 27 73t67 30q19 0 36 -8t29.5 -22t19.5 -33t7 -40zM550 841q0 28 -17 47t-41 19q-25 0 -42 -19t-17 -47q0 -27 17 -46.5t42 -19.5
q24 0 41 19.5t17 46.5z" />
    <glyph glyph-name="AE" unicode="&#xc6;" horiz-adv-x="1417" 
d="M1296 11l10 50h48q0 -20 -16 -35t-42 -15h-569v50h569v-50zM1296 319h-569v50h569v-50zM659 319h-569v50h569v-50zM1296 624h-569v49h569v-49zM659 624h-569v49h569v-49zM719 69h-51v300h51v-300zM82 69h-48v300h48v-300zM719 377h-51v238h51v-238zM82 377h-48v238h48
v-238zM719 11h-51v50h51v-50zM719 624h-51v49h51v-49zM82 11q-18 0 -33 15t-15 35h48v-50zM82 624h-48q0 19 15 34t33 15v-49zM1306 624v49q17 0 32.5 -15t15.5 -34h-48z" />
    <glyph glyph-name="Ccedilla" unicode="&#xc7;" horiz-adv-x="987" 
d="M871 11l9 50h48q0 -20 -15.5 -35t-41.5 -15h-768l-7 50h775v-50zM871 624h-768v49h768v-49zM96 69h-48v300h48v-300zM96 377h-48v238h48v-238zM96 11q-18 0 -33 15t-15 35h48v-50zM880 624v49q19 0 33.5 -15t14.5 -34h-48zM96 624h-48q0 19 15 34t33 15v-49zM596 -184
h-186v40h141v46h-110v129h49v-76h106v-139z" />
    <glyph glyph-name="Egrave" unicode="&#xc8;" 
d="M875 11l9 50h48q0 -20 -15.5 -35t-41.5 -15h-768l-7 50h775v-50zM875 319h-768v50h768v-50zM875 624h-768v49h768v-49zM100 69h-48v300h48v-300zM100 377h-48v238h48v-238zM100 11q-18 0 -33 15t-15 35h48v-50zM884 624v49q19 0 33.5 -15t14.5 -34h-48zM100 624h-48
q0 19 15 34t33 15v-49zM549 794h-47l-79 106h47z" />
    <glyph glyph-name="Eacute" unicode="&#xc9;" 
d="M875 11l9 50h48q0 -20 -15.5 -35t-41.5 -15h-768l-7 50h775v-50zM875 319h-768v50h768v-50zM875 624h-768v49h768v-49zM100 69h-48v300h48v-300zM100 377h-48v238h48v-238zM100 11q-18 0 -33 15t-15 35h48v-50zM884 624v49q19 0 33.5 -15t14.5 -34h-48zM100 624h-48
q0 19 15 34t33 15v-49zM566 906l-79 -106h-48l79 106h48z" />
    <glyph glyph-name="Ecircumflex" unicode="&#xca;" 
d="M875 11l9 50h48q0 -20 -15.5 -35t-41.5 -15h-768l-7 50h775v-50zM875 319h-768v50h768v-50zM875 624h-768v49h768v-49zM100 69h-48v300h48v-300zM100 377h-48v238h48v-238zM100 11q-18 0 -33 15t-15 35h48v-50zM884 624v49q19 0 33.5 -15t14.5 -34h-48zM100 624h-48
q0 19 15 34t33 15v-49zM636 769h-36l-102 93l-100 -93h-35l91 123h89z" />
    <glyph glyph-name="Edieresis" unicode="&#xcb;" 
d="M875 11l9 50h48q0 -20 -15.5 -35t-41.5 -15h-768l-7 50h775v-50zM875 319h-768v50h768v-50zM875 624h-768v49h768v-49zM100 69h-48v300h48v-300zM100 377h-48v238h48v-238zM100 11q-18 0 -33 15t-15 35h48v-50zM884 624v49q19 0 33.5 -15t14.5 -34h-48zM100 624h-48
q0 19 15 34t33 15v-49zM614 859q0 -25 -15.5 -41.5t-37.5 -16.5q-21 0 -36 16.5t-15 41.5q0 24 15 41t36 17q22 0 37.5 -17t15.5 -41zM443 859q0 -25 -15 -41.5t-36 -16.5q-22 0 -37.5 16.5t-15.5 41.5q0 24 15 41t38 17q21 0 36 -17t15 -41z" />
    <glyph glyph-name="Igrave" unicode="&#xcc;" horiz-adv-x="157" 
d="M99 624h-48q0 19 15 34t33 15v-49zM99 377h-48v238h48v-238zM99 69h-48v300h48v-300zM99 11q-18 0 -33 15t-15 35h48v-50zM145 794h-47l-79 106h47z" />
    <glyph glyph-name="Iacute" unicode="&#xcd;" horiz-adv-x="157" 
d="M96 624h-48q0 19 15 34t33 15v-49zM96 377h-48v238h48v-238zM96 69h-48v300h48v-300zM96 11q-18 0 -33 15t-15 35h48v-50zM152 906l-79 -106h-48l79 106h48z" />
    <glyph glyph-name="Icircumflex" unicode="&#xce;" horiz-adv-x="157" 
d="M106 624h-48q0 19 15 34t33 15v-49zM106 377h-48v238h48v-238zM106 69h-48v300h48v-300zM106 11q-18 0 -33 15t-15 35h48v-50zM236 773h-36l-102 93l-100 -93h-35l91 123h89z" />
    <glyph glyph-name="Idieresis" unicode="&#xcf;" horiz-adv-x="157" 
d="M103 624h-48q0 19 15 34t33 15v-49zM103 377h-48v238h48v-238zM103 69h-48v300h48v-300zM103 11q-18 0 -33 15t-15 35h48v-50zM228 860q0 -25 -15.5 -41.5t-37.5 -16.5q-21 0 -36 16.5t-15 41.5q0 24 15 41t36 17q22 0 37.5 -17t15.5 -41zM57 860q0 -25 -15 -41.5
t-36 -16.5q-22 0 -37.5 16.5t-15.5 41.5q0 24 15 41t38 17q21 0 36 -17t15 -41z" />
    <glyph glyph-name="Eth" unicode="&#xd0;" horiz-adv-x="1046" 
d="M905 624h-766v49h766v-49zM905 11h-766v50h766v-50zM579 374h-546v50h49v191h49v-191h448v-50zM964 69h-49v305l49 -5v-300zM131 69h-49v300h49v-300zM964 377h-49v238h49v-238zM131 624h-49v49h49v-49zM131 11h-49v50h49v-50zM964 61q0 -20 -15.5 -35t-33.5 -15v50h49z
M915 624v49q18 0 33.5 -15t15.5 -34h-49z" />
    <glyph glyph-name="Ntilde" unicode="&#xd1;" horiz-adv-x="1001" 
d="M890 624v49q19 0 33.5 -15t14.5 -34h-48zM938 377h-48v238h48v-238zM938 69h-48v300h48v-300zM881 624h-768v49h768v-49zM938 61q0 -20 -15.5 -35t-41.5 -15l9 50h48zM106 624h-48q0 19 15 34t33 15v-49zM106 377h-48v238h48v-238zM106 69h-48v300h48v-300zM106 11
q-18 0 -33 15t-15 35h48v-50zM631 836h-263v-41h-26v83h265v44h24v-86z" />
    <glyph glyph-name="Ograve" unicode="&#xd2;" 
d="M870 11l9 50h48q0 -20 -15.5 -35t-41.5 -15h-768l-7 50h775v-50zM870 624h-768v49h768v-49zM95 69h-48v300h48v-300zM927 69h-48v300h48v-300zM95 377h-48v238h48v-238zM927 377h-48v238h48v-238zM95 11q-18 0 -33 15t-15 35h48v-50zM879 624v49q19 0 33.5 -15t14.5 -34
h-48zM95 624h-48q0 19 15 34t33 15v-49zM522 796h-47l-79 106h47z" />
    <glyph glyph-name="Oacute" unicode="&#xd3;" 
d="M870 11l9 50h48q0 -20 -15.5 -35t-41.5 -15h-768l-7 50h775v-50zM870 624h-768v49h768v-49zM95 69h-48v300h48v-300zM927 69h-48v300h48v-300zM95 377h-48v238h48v-238zM927 377h-48v238h48v-238zM95 11q-18 0 -33 15t-15 35h48v-50zM879 624v49q19 0 33.5 -15t14.5 -34
h-48zM95 624h-48q0 19 15 34t33 15v-49zM541 909l-79 -106h-48l79 106h48z" />
    <glyph glyph-name="Ocircumflex" unicode="&#xd4;" 
d="M870 11l9 50h48q0 -20 -15.5 -35t-41.5 -15h-768l-7 50h775v-50zM870 624h-768v49h768v-49zM95 69h-48v300h48v-300zM927 69h-48v300h48v-300zM95 377h-48v238h48v-238zM927 377h-48v238h48v-238zM95 11q-18 0 -33 15t-15 35h48v-50zM879 624v49q19 0 33.5 -15t14.5 -34
h-48zM95 624h-48q0 19 15 34t33 15v-49zM615 767h-36l-102 93l-100 -93h-35l91 123h89z" />
    <glyph glyph-name="Otilde" unicode="&#xd5;" 
d="M870 11l9 50h48q0 -20 -15.5 -35t-41.5 -15h-768l-7 50h775v-50zM870 624h-768v49h768v-49zM95 69h-48v300h48v-300zM927 69h-48v300h48v-300zM95 377h-48v238h48v-238zM927 377h-48v238h48v-238zM95 11q-18 0 -33 15t-15 35h48v-50zM879 624v49q19 0 33.5 -15t14.5 -34
h-48zM95 624h-48q0 19 15 34t33 15v-49zM585 835h-263v-41h-26v83h265v44h24v-86z" />
    <glyph glyph-name="Odieresis" unicode="&#xd6;" 
d="M870 11l9 50h48q0 -20 -15.5 -35t-41.5 -15h-768l-7 50h775v-50zM870 624h-768v49h768v-49zM95 69h-48v300h48v-300zM927 69h-48v300h48v-300zM95 377h-48v238h48v-238zM927 377h-48v238h48v-238zM95 11q-18 0 -33 15t-15 35h48v-50zM879 624v49q19 0 33.5 -15t14.5 -34
h-48zM95 624h-48q0 19 15 34t33 15v-49zM636 860q0 -25 -15.5 -41.5t-37.5 -16.5q-21 0 -36 16.5t-15 41.5q0 24 15 41t36 17q22 0 37.5 -17t15.5 -41zM465 860q0 -25 -15 -41.5t-36 -16.5q-22 0 -37.5 16.5t-15.5 41.5q0 24 15 41t38 17q21 0 36 -17t15 -41z" />
    <glyph glyph-name="Oslash" unicode="&#xd8;" horiz-adv-x="978" 
d="M884 11l9 50h48q0 -20 -15.5 -35t-41.5 -15h-768l-7 50h775v-50zM884 624h-768v49h768v-49zM109 69h-48v300h48v-300zM941 69h-48v300h48v-300zM109 377h-48v238h48v-238zM941 377h-48v238h48v-238zM109 11q-18 0 -33 15t-15 35h48v-50zM893 624v49q19 0 33.5 -15
t14.5 -34h-48zM109 624h-48q0 19 15 34t33 15v-49zM884 592l-738 -215h-30v42l691 196h77v-23z" />
    <glyph glyph-name="Ugrave" unicode="&#xd9;" 
d="M877 624v49q19 0 33.5 -15t14.5 -34h-48zM925 377h-48v238h48v-238zM925 69h-48v300h48v-300zM925 61q0 -20 -14.5 -35t-33.5 -15v50h48zM93 624h-48q0 19 15 34t33 15v-49zM868 11h-768l-7 50h775v-50zM93 377h-48v238h48v-238zM93 69h-48v300h48v-300zM93 11
q-18 0 -33 15t-15 35h48v-50zM520 800h-47l-79 106h47z" />
    <glyph glyph-name="Uacute" unicode="&#xda;" 
d="M877 624v49q19 0 33.5 -15t14.5 -34h-48zM925 377h-48v238h48v-238zM925 69h-48v300h48v-300zM925 61q0 -20 -14.5 -35t-33.5 -15v50h48zM93 624h-48q0 19 15 34t33 15v-49zM868 11h-768l-7 50h775v-50zM93 377h-48v238h48v-238zM93 69h-48v300h48v-300zM93 11
q-18 0 -33 15t-15 35h48v-50zM553 903l-79 -106h-48l79 106h48z" />
    <glyph glyph-name="Ucircumflex" unicode="&#xdb;" 
d="M877 624v49q19 0 33.5 -15t14.5 -34h-48zM925 377h-48v238h48v-238zM925 69h-48v300h48v-300zM925 61q0 -20 -14.5 -35t-33.5 -15v50h48zM93 624h-48q0 19 15 34t33 15v-49zM868 11h-768l-7 50h775v-50zM93 377h-48v238h48v-238zM93 69h-48v300h48v-300zM93 11
q-18 0 -33 15t-15 35h48v-50zM615 767h-36l-102 93l-100 -93h-35l91 123h89z" />
    <glyph glyph-name="Udieresis" unicode="&#xdc;" 
d="M877 624v49q19 0 33.5 -15t14.5 -34h-48zM925 377h-48v238h48v-238zM925 69h-48v300h48v-300zM925 61q0 -20 -14.5 -35t-33.5 -15v50h48zM93 624h-48q0 19 15 34t33 15v-49zM868 11h-768l-7 50h775v-50zM93 377h-48v238h48v-238zM93 69h-48v300h48v-300zM93 11
q-18 0 -33 15t-15 35h48v-50zM630 846q0 -25 -15.5 -41.5t-37.5 -16.5q-21 0 -36 16.5t-15 41.5q0 24 15 41t36 17q22 0 37.5 -17t15.5 -41zM459 846q0 -25 -15 -41.5t-36 -16.5q-22 0 -37.5 16.5t-15.5 41.5q0 24 15 41t38 17q21 0 36 -17t15 -41z" />
    <glyph glyph-name="Yacute" unicode="&#xdd;" horiz-adv-x="969" 
d="M878 624v49q19 0 33.5 -15t14.5 -34h-48zM926 377h-48v238h48v-238zM926 69h-48v300h48v-300zM926 61q0 -20 -14.5 -35t-33.5 -15v50h48zM869 319h-768v50h768v-50zM94 624h-48q0 19 15 34t33 15v-49zM94 377h-48v238h48v-238zM94 319q-18 0 -33 15t-15 35h48v-50z
M566 908l-79 -106h-48l79 106h48z" />
    <glyph glyph-name="germandbls" unicode="&#xdf;" horiz-adv-x="919" 
d="M395 624v49q19 0 33.5 -15t14.5 -34h-48zM443 377h-48v238h48v-238zM868 69h-48v300h48v-300zM386 624h-283v49h283v-49zM868 61q0 -20 -15 -35t-33 -15v50h48zM811 319h-415v50h415v-50zM96 624h-48q0 19 15 34t33 15v-49zM811 11h-609v50h609v-50zM96 377h-48v238h48
v-238zM96 69h-48v300h48v-300zM96 11q-18 0 -33 15t-15 35h48v-50z" />
    <glyph glyph-name="agrave" unicode="&#xe0;" 
d="M928 69h-48v300h48v-300zM928 61q0 -20 -14.5 -35t-33.5 -15v50h48zM871 319h-768v50h768v-50zM871 284l-768 -213v50l691 186h77v-23zM871 11h-768v50h768v-50zM553 474h-47l-79 106h47z" />
    <glyph glyph-name="aacute" unicode="&#xe1;" 
d="M928 69h-48v300h48v-300zM928 61q0 -20 -14.5 -35t-33.5 -15v50h48zM871 319h-768v50h768v-50zM871 284l-768 -213v50l691 186h77v-23zM871 11h-768v50h768v-50zM588 581l-79 -106h-48l79 106h48z" />
    <glyph glyph-name="acircumflex" unicode="&#xe2;" 
d="M928 69h-48v300h48v-300zM928 61q0 -20 -14.5 -35t-33.5 -15v50h48zM871 319h-768v50h768v-50zM871 284l-768 -213v50l691 186h77v-23zM871 11h-768v50h768v-50zM653 476h-36l-102 93l-100 -93h-35l91 123h89z" />
    <glyph glyph-name="atilde" unicode="&#xe3;" 
d="M928 69h-48v300h48v-300zM928 61q0 -20 -14.5 -35t-33.5 -15v50h48zM871 319h-768v50h768v-50zM871 284l-768 -213v50l691 186h77v-23zM871 11h-768v50h768v-50zM639 502h-263v-41h-26v83h265v44h24v-86z" />
    <glyph glyph-name="adieresis" unicode="&#xe4;" 
d="M928 69h-48v300h48v-300zM928 61q0 -20 -14.5 -35t-33.5 -15v50h48zM871 319h-768v50h768v-50zM871 284l-768 -213v50l691 186h77v-23zM871 11h-768v50h768v-50zM662 523q0 -25 -15.5 -41.5t-37.5 -16.5q-21 0 -36 16.5t-15 41.5q0 24 15 41t36 17q22 0 37.5 -17
t15.5 -41zM491 523q0 -25 -15 -41.5t-36 -16.5q-22 0 -37.5 16.5t-15.5 41.5q0 24 15 41t38 17q21 0 36 -17t15 -41z" />
    <glyph glyph-name="aring" unicode="&#xe5;" 
d="M928 69h-48v300h48v-300zM928 61q0 -20 -14.5 -35t-33.5 -15v50h48zM871 319h-768v50h768v-50zM871 284l-768 -213v50l691 186h77v-23zM871 11h-768v50h768v-50zM604 564q0 -21 -7 -40t-19.5 -33t-29.5 -22t-36 -8t-36 8t-30 22t-20.5 33t-7.5 40q0 43 27 73t67 30
q19 0 36 -8t29.5 -22t19.5 -33t7 -40zM570 564q0 28 -17 47t-41 19q-25 0 -42 -19t-17 -47q0 -27 17 -46.5t42 -19.5q24 0 41 19.5t17 46.5z" />
    <glyph glyph-name="ae" unicode="&#xe6;" horiz-adv-x="1599" 
d="M1550 61q0 -20 -15 -35t-32 -15v50h47zM1493 319h-667v50h667v-50zM1493 284l-638 -215h-29v41l590 197h77v-23zM1493 11h-667v50h667v-50zM816 11h-49v358h49v-358zM757 319h-667v50h667v-50zM757 284l-667 -213v50l590 186h77v-23zM757 11h-667v50h667v-50z" />
    <glyph glyph-name="ccedilla" unicode="&#xe7;" horiz-adv-x="972" 
d="M880 319v50q19 0 33.5 -15t14.5 -35h-48zM928 61q0 -20 -14.5 -35t-33.5 -15v50h48zM871 319h-768v50h768v-50zM871 11h-768v50h768v-50zM96 319h-48q0 20 15 35t33 15v-50zM96 69h-48v241h48v-241zM96 11q-18 0 -33 15t-15 35h48v-50zM575 -206h-186v40h141v46h-110v129
h49v-76h106v-139z" />
    <glyph glyph-name="egrave" unicode="&#xe8;" 
d="M928 61q0 -20 -14.5 -35t-33.5 -15v50h48zM871 319h-768v50h768v-50zM871 284l-738 -215h-30v41l691 197h77v-23zM871 11h-768v50h768v-50zM96 319h-48q0 20 15 35t33 15v-50zM96 69h-48v238h48v-238zM96 11q-18 0 -33 15t-15 35h48v-50zM527 470h-47l-79 106h47z" />
    <glyph glyph-name="eacute" unicode="&#xe9;" 
d="M928 61q0 -20 -14.5 -35t-33.5 -15v50h48zM871 319h-768v50h768v-50zM871 284l-738 -215h-30v41l691 197h77v-23zM871 11h-768v50h768v-50zM96 319h-48q0 20 15 35t33 15v-50zM96 69h-48v238h48v-238zM96 11q-18 0 -33 15t-15 35h48v-50zM560 576l-79 -106h-48l79 106h48
z" />
    <glyph glyph-name="ecircumflex" unicode="&#xea;" 
d="M928 61q0 -20 -14.5 -35t-33.5 -15v50h48zM871 319h-768v50h768v-50zM871 284l-738 -215h-30v41l691 197h77v-23zM871 11h-768v50h768v-50zM96 319h-48q0 20 15 35t33 15v-50zM96 69h-48v238h48v-238zM96 11q-18 0 -33 15t-15 35h48v-50zM615 473h-36l-102 93l-100 -93
h-35l91 123h89z" />
    <glyph glyph-name="edieresis" unicode="&#xeb;" 
d="M928 61q0 -20 -14.5 -35t-33.5 -15v50h48zM871 319h-768v50h768v-50zM871 284l-738 -215h-30v41l691 197h77v-23zM871 11h-768v50h768v-50zM96 319h-48q0 20 15 35t33 15v-50zM96 69h-48v238h48v-238zM96 11q-18 0 -33 15t-15 35h48v-50zM617 527q0 -25 -15.5 -41.5
t-37.5 -16.5q-21 0 -36 16.5t-15 41.5q0 24 15 41t36 17q22 0 37.5 -17t15.5 -41zM446 527q0 -25 -15 -41.5t-36 -16.5q-22 0 -37.5 16.5t-15.5 41.5q0 24 15 41t38 17q21 0 36 -17t15 -41z" />
    <glyph glyph-name="igrave" unicode="&#xec;" horiz-adv-x="153" 
d="M96 69h-48v300h48v-300zM96 11q-18 0 -33 15t-15 35h48v-50zM113 470h-47l-79 106h47z" />
    <glyph glyph-name="iacute" unicode="&#xed;" horiz-adv-x="153" 
d="M95 69h-48v300h48v-300zM95 11q-18 0 -33 15t-15 35h48v-50zM168 573l-79 -106h-48l79 106h48z" />
    <glyph glyph-name="icircumflex" unicode="&#xee;" horiz-adv-x="153" 
d="M98 69h-48v300h48v-300zM98 11q-18 0 -33 15t-15 35h48v-50zM216 454h-36l-102 93l-100 -93h-35l91 123h89z" />
    <glyph glyph-name="idieresis" unicode="&#xef;" horiz-adv-x="153" 
d="M96 69h-48v300h48v-300zM96 11q-18 0 -33 15t-15 35h48v-50zM217 530q0 -25 -15.5 -41.5t-37.5 -16.5q-21 0 -36 16.5t-15 41.5q0 24 15 41t36 17q22 0 37.5 -17t15.5 -41zM46 530q0 -25 -15 -41.5t-36 -16.5q-22 0 -37.5 16.5t-15.5 41.5q0 24 15 41t38 17q21 0 36 -17
t15 -41z" />
    <glyph glyph-name="eth" unicode="&#xf0;" 
d="M880 61h47q0 -20 -14.5 -35t-32.5 -15v50zM880 369h47v-300h-47v300zM880 615h47v-238h-47v238zM105 61h767l8 -50h-775v50zM880 673q18 0 32.5 -15t14.5 -34h-47v49zM105 369h767v-50h-767v50zM96 61v-50q-19 0 -34 15t-15 35h49zM105 673h767v-49h-767v49zM47 310h49
l9 -241h-58v241zM47 319q0 20 15 35t34 15v-50h-49zM47 624q0 19 15 34t34 15v-49h-49z" />
    <glyph glyph-name="ntilde" unicode="&#xf1;" horiz-adv-x="972" 
d="M875 319v50q19 0 33.5 -15t14.5 -35h-48zM923 69h-48v241h48v-241zM923 61q0 -20 -14.5 -35t-33.5 -15v50h48zM866 319h-768v50h768v-50zM91 319h-48q0 20 15 35t33 15v-50zM91 69h-48v241h48v-241zM91 11q-18 0 -33 15t-15 35h48v-50zM608 523h-263v-41h-26v83h265v44
h24v-86z" />
    <glyph glyph-name="ograve" unicode="&#xf2;" 
d="M880 319v50q19 0 33.5 -15t14.5 -35h-48zM928 69h-48v241h48v-241zM928 61q0 -20 -14.5 -35t-33.5 -15v50h48zM871 319h-768v50h768v-50zM871 11h-768v50h768v-50zM96 319h-48q0 20 15 35t33 15v-50zM96 69h-48v241h48v-241zM96 11q-18 0 -33 15t-15 35h48v-50zM521 470
h-47l-79 106h47z" />
    <glyph glyph-name="oacute" unicode="&#xf3;" 
d="M880 319v50q19 0 33.5 -15t14.5 -35h-48zM928 69h-48v241h48v-241zM928 61q0 -20 -14.5 -35t-33.5 -15v50h48zM871 319h-768v50h768v-50zM871 11h-768v50h768v-50zM96 319h-48q0 20 15 35t33 15v-50zM96 69h-48v241h48v-241zM96 11q-18 0 -33 15t-15 35h48v-50zM550 576
l-79 -106h-48l79 106h48z" />
    <glyph glyph-name="ocircumflex" unicode="&#xf4;" 
d="M880 319v50q19 0 33.5 -15t14.5 -35h-48zM928 69h-48v241h48v-241zM928 61q0 -20 -14.5 -35t-33.5 -15v50h48zM871 319h-768v50h768v-50zM871 11h-768v50h768v-50zM96 319h-48q0 20 15 35t33 15v-50zM96 69h-48v241h48v-241zM96 11q-18 0 -33 15t-15 35h48v-50zM611 472
h-36l-102 93l-100 -93h-35l91 123h89z" />
    <glyph glyph-name="otilde" unicode="&#xf5;" 
d="M880 319v50q19 0 33.5 -15t14.5 -35h-48zM928 69h-48v241h48v-241zM928 61q0 -20 -14.5 -35t-33.5 -15v50h48zM871 319h-768v50h768v-50zM871 11h-768v50h768v-50zM96 319h-48q0 20 15 35t33 15v-50zM96 69h-48v241h48v-241zM96 11q-18 0 -33 15t-15 35h48v-50zM614 513
h-263v-41h-26v83h265v44h24v-86z" />
    <glyph glyph-name="odieresis" unicode="&#xf6;" 
d="M880 319v50q19 0 33.5 -15t14.5 -35h-48zM928 69h-48v241h48v-241zM928 61q0 -20 -14.5 -35t-33.5 -15v50h48zM871 319h-768v50h768v-50zM871 11h-768v50h768v-50zM96 319h-48q0 20 15 35t33 15v-50zM96 69h-48v241h48v-241zM96 11q-18 0 -33 15t-15 35h48v-50zM631 527
q0 -25 -15.5 -41.5t-37.5 -16.5q-21 0 -36 16.5t-15 41.5q0 24 15 41t36 17q22 0 37.5 -17t15.5 -41zM460 527q0 -25 -15 -41.5t-36 -16.5q-22 0 -37.5 16.5t-15.5 41.5q0 24 15 41t38 17q21 0 36 -17t15 -41z" />
    <glyph glyph-name="oslash" unicode="&#xf8;" 
d="M894 319v50q19 0 34 -15t15 -35h-49zM943 69h-49v241h49v-241zM943 61q0 -20 -15 -35t-34 -15v50h49zM886 319h-768v50h768v-50zM886 11h-768v50h768v-50zM110 319h-47q0 20 14.5 35t32.5 15v-50zM110 69h-47v241h47v-241zM110 11q-18 0 -32.5 15t-14.5 35h47v-50z
M884 283l-733 -213h-29v41l684 194h78v-22z" />
    <glyph glyph-name="ugrave" unicode="&#xf9;" 
d="M922 69h-48v300h48v-300zM922 61q0 -20 -14.5 -35t-33.5 -15v50h48zM865 11h-768v50h768v-50zM90 69h-48v300h48v-300zM90 11q-18 0 -33 15t-15 35h48v-50zM535 470h-47l-79 106h47z" />
    <glyph glyph-name="uacute" unicode="&#xfa;" 
d="M922 69h-48v300h48v-300zM922 61q0 -20 -14.5 -35t-33.5 -15v50h48zM865 11h-768v50h768v-50zM90 69h-48v300h48v-300zM90 11q-18 0 -33 15t-15 35h48v-50zM566 580l-79 -106h-48l79 106h48z" />
    <glyph glyph-name="ucircumflex" unicode="&#xfb;" 
d="M922 69h-48v300h48v-300zM922 61q0 -20 -14.5 -35t-33.5 -15v50h48zM865 11h-768v50h768v-50zM90 69h-48v300h48v-300zM90 11q-18 0 -33 15t-15 35h48v-50zM594 476h-36l-102 93l-100 -93h-35l91 123h89z" />
    <glyph glyph-name="udieresis" unicode="&#xfc;" 
d="M922 69h-48v300h48v-300zM922 61q0 -20 -14.5 -35t-33.5 -15v50h48zM865 11h-768v50h768v-50zM90 69h-48v300h48v-300zM90 11q-18 0 -33 15t-15 35h48v-50zM613 527q0 -25 -15.5 -41.5t-37.5 -16.5q-21 0 -36 16.5t-15 41.5q0 24 15 41t36 17q22 0 37.5 -17t15.5 -41z
M442 527q0 -25 -15 -41.5t-36 -16.5q-22 0 -37.5 16.5t-15.5 41.5q0 24 15 41t38 17q21 0 36 -17t15 -41z" />
    <glyph glyph-name="yacute" unicode="&#xfd;" horiz-adv-x="975" 
d="M925 69h-48v300h48v-300zM925 61q0 -20 -14.5 -35t-33.5 -15v50h48zM868 69h-29l-739 215v23h79l689 -197v-41zM868 11h-768v50h768v-50zM93 11q-18 0 -33 15t-15 35h48v-50zM602 580l-79 -106h-48l79 106h48z" />
    <glyph glyph-name="ydieresis" unicode="&#xff;" 
d="M925 69h-48v300h48v-300zM925 61q0 -20 -14.5 -35t-33.5 -15v50h48zM868 69h-29l-739 215v23h79l689 -197v-41zM868 11h-768v50h768v-50zM93 11q-18 0 -33 15t-15 35h48v-50zM611 527q0 -25 -15.5 -41.5t-37.5 -16.5q-21 0 -36 16.5t-15 41.5q0 24 15 41t36 17
q22 0 37.5 -17t15.5 -41zM440 527q0 -25 -15 -41.5t-36 -16.5q-22 0 -37.5 16.5t-15.5 41.5q0 24 15 41t38 17q21 0 36 -17t15 -41z" />
    <glyph glyph-name="dotlessi" unicode="&#x131;" horiz-adv-x="153" 
d="M96 69h-48v300h48v-300zM96 11q-18 0 -33 15t-15 35h48v-50z" />
    <glyph glyph-name="OE" unicode="&#x152;" horiz-adv-x="1415" 
d="M1305 11l8 50h49q0 -20 -16 -35t-41 -15h-569v50h569v-50zM727 11h-45v662h45v-662zM1305 319h-569v50h569v-50zM669 11h-568v50h568v-50zM1305 624h-569v49h569v-49zM669 624h-568v49h568v-49zM92 69h-48v300h48v-300zM92 377h-48v238h48v-238zM92 11q-18 0 -33 15
t-15 35h48v-50zM1313 624v49q19 0 34 -15t15 -34h-49zM92 624h-48q0 19 15 34t33 15v-49z" />
    <glyph glyph-name="oe" unicode="&#x153;" horiz-adv-x="1430" 
d="M1361 61q0 -20 -15 -35t-34 -15v50h49zM1302 319h-567v50h567v-50zM1302 284l-539 -215h-28v41l490 197h77v-23zM1302 11h-567v50h567v-50zM725 11h-47v358h47v-358zM668 319h-568v50h568v-50zM668 11h-568v50h568v-50zM92 319h-48q0 20 15 35t33 15v-50zM92 69h-48v241
h48v-241zM92 11q-18 0 -33 15t-15 35h48v-50z" />
    <glyph glyph-name="Scaron" unicode="&#x160;" horiz-adv-x="1000" 
d="M871 11l9 50h48q0 -20 -15.5 -35t-41.5 -15h-768l-7 50h775v-50zM871 319h-768v50h768v-50zM871 624h-768v49h768v-49zM928 69h-48v239h48v-239zM96 377h-48v238h48v-238zM880 319v50q19 0 33.5 -15t14.5 -35h-48zM96 319q-18 0 -33 15t-15 35h48v-50zM96 11
q-18 0 -33 15t-15 35h48v-50zM880 624v49q19 0 33.5 -15t14.5 -34h-48zM96 624h-48q0 19 15 34t33 15v-49zM661 890l-91 -123h-89l-92 123h16l122 -59l120 59h14z" />
    <glyph glyph-name="scaron" unicode="&#x161;" horiz-adv-x="930" 
d="M871 69h-29l-739 215v23l79 12h-79v50h768v-50h-689l689 -209v-41zM871 11h-768v50h768v-50zM96 11q-18 0 -33 15t-15 35h48v-50zM658 592l-91 -123h-89l-92 123h16l122 -59l120 59h14z" />
    <glyph glyph-name="Ydieresis" unicode="&#x178;" 
d="M879 624v49q19 0 33.5 -15t14.5 -34h-48zM927 377h-48v238h48v-238zM927 69h-48v300h48v-300zM927 61q0 -20 -14.5 -35t-33.5 -15v50h48zM870 319h-768v50h768v-50zM95 624h-48q0 19 15 34t33 15v-49zM95 377h-48v238h48v-238zM95 319q-18 0 -33 15t-15 35h48v-50z
M629 870q0 -25 -15.5 -41.5t-37.5 -16.5q-21 0 -36 16.5t-15 41.5q0 24 15 41t36 17q22 0 37.5 -17t15.5 -41zM458 870q0 -25 -15 -41.5t-36 -16.5q-22 0 -37.5 16.5t-15.5 41.5q0 24 15 41t38 17q21 0 36 -17t15 -41z" />
    <glyph glyph-name="circumflex" unicode="&#x2c6;" horiz-adv-x="680" 
d="M480 610h-36l-102 93l-100 -93h-35l91 123h89z" />
    <glyph glyph-name="caron" unicode="&#x2c7;" horiz-adv-x="603" 
d="M474 755l-91 -123h-89l-92 123h16l122 -59l120 59h14z" />
    <glyph glyph-name="ring" unicode="&#x2da;" horiz-adv-x="692" 
d="M488 695q0 -21 -7 -40t-19.5 -33t-29.5 -22t-36 -8t-36 8t-30 22t-20.5 33t-7.5 40q0 43 27 73t67 30q19 0 36 -8t29.5 -22t19.5 -33t7 -40zM454 695q0 28 -17 47t-41 19q-25 0 -42 -19t-17 -47q0 -27 17 -46.5t42 -19.5q24 0 41 19.5t17 46.5z" />
    <glyph glyph-name="tilde" unicode="&#x2dc;" horiz-adv-x="652" 
d="M462 653h-263v-41h-26v83h265v44h24v-86z" />
    <glyph glyph-name="quoteleft" unicode="&#x2018;" horiz-adv-x="121" 
d="M211 507h-48l-46 238h48zM222 449q-18 0 -36.5 15t-22.5 34h49z" />
    <glyph glyph-name="quoteright" unicode="&#x2019;" horiz-adv-x="112" 
d="M163 449q-17 0 -29 12.5t-12 29.5q0 2 0.5 3.5t0.5 3.5h50zM173 507h-49l46 238h49z" />
    <glyph glyph-name="quotesinglbase" unicode="&#x201a;" horiz-adv-x="112" 
d="M50 -160q-17 0 -28.5 12t-11.5 30q0 6 1 8h48zM61 -101h-49l45 237h49z" />
    <glyph glyph-name="quotedblleft" unicode="&#x201c;" horiz-adv-x="195" 
d="M212 758h49l45 -238h-49zM123 758h49l45 -238h-49zM170 512h49v-7q0 -18 -11.5 -30.5t-28.5 -12.5zM260 512h48v-7q0 -18 -11.5 -30.5t-28.5 -12.5z" />
    <glyph glyph-name="quotedblright" unicode="&#x201d;" horiz-adv-x="218" 
d="M280 520h-48l45 238h49zM183 520h-50l46 238h49zM278 512q-3 -20 -20.5 -35t-36.5 -15l9 50h48zM180 512q-3 -20 -20.5 -35t-36.5 -15l9 50h48z" />
    <glyph glyph-name="quotedblbase" unicode="&#x201e;" horiz-adv-x="218" 
d="M166 -96h-48l45 238h49zM68 -96h-48l45 238h48zM164 -105q-2 -19 -20.5 -34t-36.5 -15l9 49h48zM66 -105q-2 -19 -20 -34t-37 -15l9 49h48z" />
    <glyph glyph-name="bullet" unicode="&#x2022;" horiz-adv-x="525" 
d="M136 351q0 27 9.5 51t25.5 41.5t37.5 28t45.5 10.5t45.5 -10.5t37.5 -28t25.5 -41.5t9.5 -51t-9.5 -51t-25.5 -42t-37.5 -28t-45.5 -10t-45.5 10t-37.5 28t-25.5 42t-9.5 51z" />
    <glyph glyph-name="ellipsis" unicode="&#x2026;" horiz-adv-x="414" 
d="M96 11q-18 0 -33 15t-15 35h48v-50zM230 11q-18 0 -33 15t-15 35h48v-50zM365 11q-18 0 -33 15t-15 35h48v-50z" />
    <glyph glyph-name="guilsinglleft" unicode="&#x2039;" horiz-adv-x="228" 
d="M94 332l101 -53v-66l-154 85v65l154 89v-68z" />
    <glyph glyph-name="guilsinglright" unicode="&#x203a;" horiz-adv-x="228" 
d="M142 334l-101 52v66l154 -85v-65l-154 -89v69z" />
    <glyph glyph-name="Euro" unicode="&#x20ac;" 
d="M871 11l9 50h48q0 -20 -15.5 -35t-41.5 -15h-768l-7 50h775v-50zM871 624h-768v49h768v-49zM869 380h-766v49h766v-49zM705 256h-602v51h602v-51zM96 69h-48v300h48v-300zM96 377h-48v238h48v-238zM96 11q-18 0 -33 15t-15 35h48v-50zM880 624v49q19 0 33.5 -15t14.5 -34
h-48zM96 624h-48q0 19 15 34t33 15v-49z" />
    <glyph glyph-name="trademark" unicode="&#x2122;" horiz-adv-x="617" 
d="M190 532v-245h-65v245h-78v60h219v-60h-76zM493 455l-66 -169l-73 176v-174h-60v305h73l59 -157l57 157h71v-305h-61v167z" />
    </font>
</defs>
</svg>
